<svg id="Layer_1" data-name="Layer 1" xmlns="http://www.w3.org/2000/svg" viewBox="0 0 1080 1080"><path d="M947.87,845.64l-49.76-107L618.7,138,569,31.21q-14.44-.83-29-.82a512.25,512.25,0,0,0-78.82,6A508.09,508.09,0,0,0,193.49,166.32q-7,6.51-13.84,13.33a509.47,509.47,0,0,0,360.35,870q10.21,0,20.35-.4h0l154.4.4-41.44-88.78-13.54-29.1L570,738.68H787.83l42.06,90.43,44.43,95.53,58.13,125h110.29ZM542.7,949.6c-225.61,1.5-412.31-184-412.31-409.6A408,408,0,0,1,238.48,263L390.3,589.43l.26.57,69.16,148.68,97.94,210.55Q550.21,949.55,542.7,949.6ZM523.49,638.68,500.85,590,454.34,490l-70.2-150.92C341.47,247.36,402.72,141,503.49,132l2.06-.18L672.15,490l46.52,100,22.64,48.68Z"/></svg>