<svg id="Layer_1" data-name="Layer 1" xmlns="http://www.w3.org/2000/svg" viewBox="0 0 73 73"><defs><style>.cls-1{fill:#0057f2;}</style></defs><path class="cls-1" d="M37,73.5a36.16,36.16,0,0,1-14.21-2.87,36.47,36.47,0,1,1,28.42,0A36.16,36.16,0,0,1,37,73.5ZM10.72,20.43v33.1H26.8A16.85,16.85,0,0,0,31.1,53a11.67,11.67,0,0,0,3.76-1.72,8.58,8.58,0,0,0,2.62-3,9.17,9.17,0,0,0,1-4.34,9.2,9.2,0,0,0-1.51-5.31,8,8,0,0,0-4.57-3.08,8.26,8.26,0,0,0,3.37-2.74,7.29,7.29,0,0,0,1.13-4.17,9,9,0,0,0-.76-3.89A6.45,6.45,0,0,0,34,22.21a9.23,9.23,0,0,0-3.34-1.37,20.79,20.79,0,0,0-4.31-.42Zm40.92,7.89a12.49,12.49,0,0,0-5,1A11.79,11.79,0,0,0,42.79,32a11.91,11.91,0,0,0-2.51,4,14,14,0,0,0-.88,5,14.54,14.54,0,0,0,.86,5.1,11.61,11.61,0,0,0,2.43,4,10.68,10.68,0,0,0,3.85,2.57,13.68,13.68,0,0,0,5.1.9,12.64,12.64,0,0,0,7-1.85,11.1,11.1,0,0,0,4.26-6.17H57.07a4.16,4.16,0,0,1-1.77,2.11,5.89,5.89,0,0,1-3.43,1,5.92,5.92,0,0,1-4.26-1.44A6.64,6.64,0,0,1,46,42.55H63.28a17.07,17.07,0,0,0-.46-5.33,13.09,13.09,0,0,0-2.11-4.54A10.69,10.69,0,0,0,57,29.5a11.48,11.48,0,0,0-5.34-1.18Zm-6.78-6.21v3.71H58.24V22.11ZM18,47.88h0V38.79h7.93a6.19,6.19,0,0,1,3.8,1.09,4.3,4.3,0,0,1,1.44,3.64,4.58,4.58,0,0,1-.44,2.13A3.63,3.63,0,0,1,29.54,47a5.21,5.21,0,0,1-1.71.69,10.36,10.36,0,0,1-2,.2H18Zm38.7-9.51H46a7.22,7.22,0,0,1,.3-1.58,4.88,4.88,0,0,1,.88-1.67,5,5,0,0,1,1.67-1.32,5.75,5.75,0,0,1,2.62-.53,4.66,4.66,0,0,1,3.59,1.3,7.62,7.62,0,0,1,1.65,3.8ZM18,33.83h0V26.09h6.85a10.24,10.24,0,0,1,1.84.16,4.6,4.6,0,0,1,1.6.58A3,3,0,0,1,29.4,28a3.8,3.8,0,0,1,.42,1.9,3.48,3.48,0,0,1-1.25,3,5.29,5.29,0,0,1-3.2.93Z" transform="translate(-0.5 -0.5)"/></svg>