<svg id="Layer_1" data-name="Layer 1" xmlns="http://www.w3.org/2000/svg" xmlns:xlink="http://www.w3.org/1999/xlink" viewBox="0 0 39.5 39.5"><defs><style>.cls-1{fill:url(#linear-gradient);}</style><linearGradient id="linear-gradient" x1="-783.4" y1="167.44" x2="-783.4" y2="166.48" gradientTransform="translate(31356 -6622.01) scale(40 39.78)" gradientUnits="userSpaceOnUse"><stop offset="0" stop-color="#0062e0"/><stop offset="1" stop-color="#19afff"/></linearGradient></defs><path class="cls-1" d="M20,.25a19.9,19.9,0,0,0-3.26,39.5l.12-.1h0v-14H11.9V20.1h4.94V15.73c0-5,3.16-7.74,7.7-7.74a32,32,0,0,1,4.35.4v5.06H26.32c-2.37,0-3,1.19-3,2.78V20.1h5.23l-.89,5.56H23.36v14l-.19,0,.09.07A19.9,19.9,0,0,0,20,.25Z" transform="translate(-0.25 -0.25)"/></svg>