<svg id="Layer_1" data-name="Layer 1" xmlns="http://www.w3.org/2000/svg" viewBox="0 0 1899.5 207.41"><path d="M81.19,865.51,10.25,1064.94H45.58l16.61-47.29h72.47l16.62,47.29h35.33l-71-199.43ZM73.4,985.74l25-71.24,25,71.24Z" transform="translate(-10.25 -861.52)"/><polygon points="303.48 132.77 218.29 3.99 182.39 3.99 182.39 203.42 218.86 203.42 218.86 66.67 310.03 203.42 339.94 203.42 339.94 3.99 303.48 3.99 303.48 132.77"/><path d="M486.82,970.07a168.33,168.33,0,0,1-1.85,26,58,58,0,0,1-6.77,20.22,32.74,32.74,0,0,1-14,13q-9.12,4.56-23.51,4.56t-23.5-4.56a32.63,32.63,0,0,1-14-13,57.78,57.78,0,0,1-6.77-20.22,168.33,168.33,0,0,1-1.85-26V865.51H358v114q0,27.06,9,47.15a68,68,0,0,0,27.27,31.2q18.31,11.12,46.37,11.11T487,1057.82a68,68,0,0,0,27.28-31.2q9-20.08,9-47.15v-114H486.82Z" transform="translate(-10.25 -861.52)"/><path d="M663.28,960.74q9.33-12.9,9.33-34.83,0-20.52-8.54-33.91a51.57,51.57,0,0,0-24-19.94q-15.45-6.55-36.11-6.55H531v199.43h36.46V990.87h37L643,1064.94h40.74l-45-83.76A65.74,65.74,0,0,0,663.28,960.74Zm-37.68-9.55q-8.83,9.19-31.34,9.19H567.48V896h28.21q21.36,0,30.06,8.48t8.69,23.43Q634.44,942,625.6,951.19Z" transform="translate(-10.25 -861.52)"/><path d="M759.22,865.51l-70.94,199.43h35.33l16.61-47.29h72.47l16.62,47.29h35.33L793.69,865.51Zm-7.79,120.23,25-71.24,25,71.24Z" transform="translate(-10.25 -861.52)"/><path d="M950.29,995.14h27.35v35.61q-7.27,1.43-14.18,2.28a107.52,107.52,0,0,1-13.17.86q-20.67,0-34.48-8.91a54.77,54.77,0,0,1-20.73-24.57q-6.9-15.67-6.9-36,0-19.36,6.83-34.69a53.85,53.85,0,0,1,21.09-24.21q14.24-8.91,36.46-8.91A113.25,113.25,0,0,1,980,899.77a129.37,129.37,0,0,1,23.57,8.19l4-34.76a109.52,109.52,0,0,0-24.71-8.4,136.29,136.29,0,0,0-30.28-3.28q-30.63,0-54.13,12.82a92.93,92.93,0,0,0-36.82,36.11q-13.32,23.29-13.32,54.49,0,31.48,12,54.84A86,86,0,0,0,894.73,1056q22.5,12.89,54.13,12.89a148.88,148.88,0,0,0,37.68-4.49q17.16-4.49,27.56-10.61V964.94H950.29Z" transform="translate(-10.25 -861.52)"/><path d="M1147.82,995.14h27.35v35.61q-7.26,1.43-14.17,2.28a107.55,107.55,0,0,1-13.18.86q-20.65,0-34.47-8.91a54.77,54.77,0,0,1-20.73-24.57q-6.9-15.67-6.91-36,0-19.36,6.84-34.69a53.85,53.85,0,0,1,21.09-24.21q14.23-8.91,36.46-8.91a113.11,113.11,0,0,1,27.42,3.21A129.21,129.21,0,0,1,1201.1,908l4-34.76a109.44,109.44,0,0,0-24.72-8.4,136.27,136.27,0,0,0-30.27-3.28q-30.63,0-54.13,12.82a92.93,92.93,0,0,0-36.82,36.11q-13.32,23.29-13.32,54.49,0,31.48,12,54.84a86.12,86.12,0,0,0,34.48,36.26q22.5,12.89,54.13,12.89a148.93,148.93,0,0,0,37.68-4.49q17.16-4.49,27.56-10.61V964.94h-63.82Z" transform="translate(-10.25 -861.52)"/><polygon points="1339.43 82.91 1248.26 82.91 1248.26 3.99 1211.79 3.99 1211.79 203.42 1248.26 203.42 1248.26 117.1 1339.43 117.1 1339.43 203.42 1375.89 203.42 1375.89 3.99 1339.43 3.99 1339.43 82.91"/><path d="M1541.37,874.41q-22.23-12.88-50.72-12.89t-50.71,12.89a91.54,91.54,0,0,0-34.9,36.18q-12.68,23.29-12.68,54.63t12.68,54.63a91.5,91.5,0,0,0,34.9,36.19q22.21,12.89,50.71,12.89t50.72-12.89a91.57,91.57,0,0,0,34.9-36.19q12.68-23.28,12.68-54.63t-12.68-54.63A91.6,91.6,0,0,0,1541.37,874.41Zm2.7,126.07a54.1,54.1,0,0,1-20.08,24.29q-13.4,8.84-33.34,8.83t-33.33-8.83a54.12,54.12,0,0,1-20.09-24.29q-6.69-15.45-6.69-35.26t6.69-35.25a54.18,54.18,0,0,1,20.09-24.29q13.38-8.83,33.33-8.83t33.34,8.83A54.16,54.16,0,0,1,1544.07,930q6.71,15.45,6.7,35.25T1544.07,1000.48Z" transform="translate(-10.25 -861.52)"/><path d="M1706.09,962.3q-14.74-8.19-36.4-15-12.54-4-21.51-7.63t-13.82-8.76q-4.84-5.13-4.84-13.53,0-10.54,8.69-15.81t24.65-5.27a116.75,116.75,0,0,1,30,3.91,209.42,209.42,0,0,1,31.56,11.47l3.7-37.32a213.07,213.07,0,0,0-28.21-8.76,145,145,0,0,0-34.76-4.06q-24.08,0-40.24,7.34t-24.29,20.22a54.07,54.07,0,0,0-8.12,29.42q0,16.82,7.41,27.64A57.92,57.92,0,0,0,1620,964a180.61,180.61,0,0,0,28.63,12.61q16,5.55,26.21,9.9t15.24,9.83q5,5.49,5,14.46,0,11.69-8.83,17.38t-23.36,5.7a104.74,104.74,0,0,1-23.08-2.57,162.17,162.17,0,0,1-22.22-6.69q-10.83-4.14-20.8-9l-4.28,38.75a122.16,122.16,0,0,0,17.38,6.48,214.82,214.82,0,0,0,23.79,5.7,137.92,137.92,0,0,0,24.93,2.35q25.22,0,40.53-5.77t23.29-14.74a47.06,47.06,0,0,0,10.68-19,71.57,71.57,0,0,0,2.71-18.59q0-17.1-7.48-28.71T1706.09,962.3Z" transform="translate(-10.25 -861.52)"/><polygon points="1863.03 3.99 1863.03 82.91 1771.86 82.91 1771.86 3.99 1735.4 3.99 1735.4 203.42 1771.86 203.42 1771.86 117.1 1863.03 117.1 1863.03 203.42 1899.5 203.42 1899.5 3.99 1863.03 3.99"/></svg>