<svg id="Layer_1" data-name="Layer 1" xmlns="http://www.w3.org/2000/svg" xmlns:xlink="http://www.w3.org/1999/xlink" viewBox="0 0 130.02 129.99"><defs><style>.cls-1{fill:url(#radial-gradient);}.cls-2{fill:url(#radial-gradient-2);}.cls-3{fill:#fff;}</style><radialGradient id="radial-gradient" cx="-553.22" cy="-227.61" r="65" gradientTransform="matrix(0, -1.98, -1.84, 0, -384.15, -955.47)" gradientUnits="userSpaceOnUse"><stop offset="0" stop-color="#fd5"/><stop offset="0.1" stop-color="#fd5"/><stop offset="0.5" stop-color="#ff543e"/><stop offset="1" stop-color="#c837ab"/></radialGradient><radialGradient id="radial-gradient-2" cx="303" cy="235.09" r="65" gradientTransform="matrix(0.17, 0.87, 3.58, -0.72, -915.53, -84.26)" gradientUnits="userSpaceOnUse"><stop offset="0" stop-color="#3771c8"/><stop offset="0.13" stop-color="#3771c8"/><stop offset="1" stop-color="#60f" stop-opacity="0"/></radialGradient></defs><path class="cls-1" d="M103.42,37.69a15.89,15.89,0,0,0-9.11-9.11,26.39,26.39,0,0,0-8.91-1.65c-5.06-.23-6.58-.28-19.4-.28H61.7c-9,0-10.66.07-15.09.27a26.39,26.39,0,0,0-8.91,1.65,15.86,15.86,0,0,0-9.12,9.11,26.78,26.78,0,0,0-1.65,8.92c-.23,5.06-.28,6.57-.28,19.39s.05,14.34.28,19.4a26.63,26.63,0,0,0,1.65,8.9,15.86,15.86,0,0,0,9.12,9.11,26.58,26.58,0,0,0,8.91,1.66c5.06.23,6.58.28,19.39.28s14.34,0,19.4-.28a26.58,26.58,0,0,0,8.91-1.66,15.91,15.91,0,0,0,9.11-9.1,26.39,26.39,0,0,0,1.65-8.91c.23-5.06.28-6.58.28-19.39s0-14.33-.28-19.39A26.39,26.39,0,0,0,103.42,37.69ZM66,90.65a24.65,24.65,0,1,1,0-49.3h0a24.65,24.65,0,0,1,0,49.3ZM91.63,46.14a5.76,5.76,0,1,1,0-11.52h0a5.76,5.76,0,1,1,0,11.52Z" transform="translate(-1 -1)"/><path class="cls-2" d="M103.42,37.69a15.89,15.89,0,0,0-9.11-9.11,26.39,26.39,0,0,0-8.91-1.65c-5.06-.23-6.58-.28-19.4-.28H61.7c-9,0-10.66.07-15.09.27a26.39,26.39,0,0,0-8.91,1.65,15.86,15.86,0,0,0-9.12,9.11,26.78,26.78,0,0,0-1.65,8.92c-.23,5.06-.28,6.57-.28,19.39s.05,14.34.28,19.4a26.63,26.63,0,0,0,1.65,8.9,15.86,15.86,0,0,0,9.12,9.11,26.58,26.58,0,0,0,8.91,1.66c5.06.23,6.58.28,19.39.28s14.34,0,19.4-.28a26.58,26.58,0,0,0,8.91-1.66,15.91,15.91,0,0,0,9.11-9.1,26.39,26.39,0,0,0,1.65-8.91c.23-5.06.28-6.58.28-19.39s0-14.33-.28-19.39A26.39,26.39,0,0,0,103.42,37.69ZM66,90.65a24.65,24.65,0,1,1,0-49.3h0a24.65,24.65,0,0,1,0,49.3ZM91.63,46.14a5.76,5.76,0,1,1,0-11.52h0a5.76,5.76,0,1,1,0,11.52Z" transform="translate(-1 -1)"/><circle class="cls-1" cx="65" cy="65" r="16"/><circle class="cls-2" cx="65" cy="65" r="16"/><path class="cls-1" d="M130.9,29.17a31.79,31.79,0,0,0-3.13-12.44,26.11,26.11,0,0,0-5.56-7.62A28.08,28.08,0,0,0,106.38,1.6c-3-.44-3.65-.57-19.19-.6H66C38.89,1,31,1,29.41,1.16c-5.57.46-9,1.34-12.81,3.22A25.91,25.91,0,0,0,9.13,9.84,27.86,27.86,0,0,0,1.6,25.66C1.16,28.7,1,29.32,1,44.84,1,50,1,56.83,1,66c0,27.12,0,35.05.15,36.59.45,5.42,1.31,8.83,3.11,12.56A27.39,27.39,0,0,0,22,129.62a46.13,46.13,0,0,0,9.44,1.25c1.61.07,18,.12,34.44.12s32.83,0,34.4-.1a44.66,44.66,0,0,0,9.79-1.28,27.22,27.22,0,0,0,17.75-14.53,32.3,32.3,0,0,0,3.06-12.32c.09-1.12.13-19,.13-36.81S131,30.29,130.9,29.17ZM113.71,85.79a35.55,35.55,0,0,1-2.23,11.65,24.59,24.59,0,0,1-14,14,35,35,0,0,1-11.65,2.23c-5.12.23-6.75.29-19.79.29s-14.67-.06-19.79-.29a35,35,0,0,1-11.65-2.23,24.59,24.59,0,0,1-14-14,35.29,35.29,0,0,1-2.23-11.65C18.06,80.67,18,79,18,66s.06-14.67.29-19.79a35,35,0,0,1,2.23-11.65,24.52,24.52,0,0,1,14-14,35,35,0,0,1,11.65-2.23C51.33,18.06,53,18,66,18h0c13,0,14.66.06,19.78.29a35.15,35.15,0,0,1,11.66,2.23,24.52,24.52,0,0,1,14,14,35.55,35.55,0,0,1,2.23,11.65c.23,5.12.29,6.75.29,19.79S113.94,80.67,113.71,85.79Z" transform="translate(-1 -1)"/><path class="cls-2" d="M130.9,29.17a31.79,31.79,0,0,0-3.13-12.44,26.11,26.11,0,0,0-5.56-7.62A28.08,28.08,0,0,0,106.38,1.6c-3-.44-3.65-.57-19.19-.6H66C38.89,1,31,1,29.41,1.16c-5.57.46-9,1.34-12.81,3.22A25.91,25.91,0,0,0,9.13,9.84,27.86,27.86,0,0,0,1.6,25.66C1.16,28.7,1,29.32,1,44.84,1,50,1,56.83,1,66c0,27.12,0,35.05.15,36.59.45,5.42,1.31,8.83,3.11,12.56A27.39,27.39,0,0,0,22,129.62a46.13,46.13,0,0,0,9.44,1.25c1.61.07,18,.12,34.44.12s32.83,0,34.4-.1a44.66,44.66,0,0,0,9.79-1.28,27.22,27.22,0,0,0,17.75-14.53,32.3,32.3,0,0,0,3.06-12.32c.09-1.12.13-19,.13-36.81S131,30.29,130.9,29.17ZM113.71,85.79a35.55,35.55,0,0,1-2.23,11.65,24.59,24.59,0,0,1-14,14,35,35,0,0,1-11.65,2.23c-5.12.23-6.75.29-19.79.29s-14.67-.06-19.79-.29a35,35,0,0,1-11.65-2.23,24.59,24.59,0,0,1-14-14,35.29,35.29,0,0,1-2.23-11.65C18.06,80.67,18,79,18,66s.06-14.67.29-19.79a35,35,0,0,1,2.23-11.65,24.52,24.52,0,0,1,14-14,35,35,0,0,1,11.65-2.23C51.33,18.06,53,18,66,18h0c13,0,14.66.06,19.78.29a35.15,35.15,0,0,1,11.66,2.23,24.52,24.52,0,0,1,14,14,35.55,35.55,0,0,1,2.23,11.65c.23,5.12.29,6.75.29,19.79S113.94,80.67,113.71,85.79Z" transform="translate(-1 -1)"/><polygon class="cls-3" points="64.99 17 65 17 65 17 64.99 17"/><polygon class="cls-3" points="65 40.35 65 40.35 65 40.35 65 40.35"/></svg>