<svg id="Layer_1" data-name="Layer 1" xmlns="http://www.w3.org/2000/svg" viewBox="0 0 71.5 71.5"><defs><style>.cls-1{fill:#007ebb;}</style></defs><path class="cls-1" d="M36,.25A35.75,35.75,0,1,0,71.75,36,35.76,35.76,0,0,0,36,.25ZM25,56.85H16V27.72h9ZM20.48,23.91a5.38,5.38,0,1,1,5.33-5.38A5.35,5.35,0,0,1,20.48,23.91ZM58.84,56.85h-9V41.56C49.86,37.37,48.27,35,45,35c-3.61,0-5.49,2.44-5.49,6.53V56.85H30.8V27.72h8.66v3.93a10.16,10.16,0,0,1,8.78-4.82c6.18,0,10.6,3.78,10.6,11.58Z" transform="translate(-0.25 -0.25)"/></svg>